<svg viewBox="0 0 256 256" xmlns="http://www.w3.org/2000/svg" role="img" aria-labelledby="t d">
  <title id="t">Kármán</title><desc id="d">Trajectory fan — dense swarm.</desc>
  <defs>
  <linearGradient id="cool" x1="0" y1="1" x2="0" y2="0"><stop offset="0" stop-color="#22d3ee"/><stop offset="0.55" stop-color="#3b82f6"/><stop offset="1" stop-color="#a78bfa"/></linearGradient>
  <linearGradient id="plasma" x1="0" y1="1" x2="0" y2="0"><stop offset="0" stop-color="#6366f1"/><stop offset="0.5" stop-color="#d946ef"/><stop offset="1" stop-color="#fbbf24"/></linearGradient>
  <linearGradient id="warm" x1="0" y1="1" x2="0" y2="0"><stop offset="0" stop-color="#f59e0b"/><stop offset="1" stop-color="#ef4444"/></linearGradient>
  <radialGradient id="pad" cx="0.5" cy="0.5" r="0.5"><stop offset="0" stop-color="#e2e8f0"/><stop offset="1" stop-color="#e2e8f0" stop-opacity="0"/></radialGradient>
</defs>
  <line x1="18" y1="86" x2="238" y2="86" stroke="#64748b" stroke-width="1.4" stroke-dasharray="2 7" opacity="0.65"/>
  <path d="M128,224 Q82.0,92.0 20.0,224" fill="none" stroke="url(#cool)" stroke-width="1.0" stroke-linecap="round" opacity="0.9"/>
  <path d="M128,224 Q85.3,67.8 26.6,224" fill="none" stroke="url(#cool)" stroke-width="1.0" stroke-linecap="round" opacity="0.9"/>
  <path d="M128,224 Q88.6,45.0 33.1,224" fill="none" stroke="url(#cool)" stroke-width="1.0" stroke-linecap="round" opacity="0.9"/>
  <path d="M128,224 Q114.2,106.7 92.3,224" fill="none" stroke="url(#warm)" stroke-width="1.4" stroke-linecap="round" opacity="0.85"/>
  <path d="M128,224 Q95.1,3.5 46.2,224" fill="none" stroke="url(#cool)" stroke-width="1.0" stroke-linecap="round" opacity="0.9"/>
  <path d="M128,224 Q98.4,-15.2 52.8,224" fill="none" stroke="url(#cool)" stroke-width="1.0" stroke-linecap="round" opacity="0.9"/>
  <path d="M128,224 Q118.3,101.3 100.7,224" fill="none" stroke="url(#warm)" stroke-width="1.4" stroke-linecap="round" opacity="0.85"/>
  <path d="M128,224 Q104.9,-48.3 65.9,224" fill="none" stroke="url(#cool)" stroke-width="1.0" stroke-linecap="round" opacity="0.9"/>
  <path d="M128,224 Q108.2,-62.9 72.4,224" fill="none" stroke="url(#cool)" stroke-width="1.0" stroke-linecap="round" opacity="0.9"/>
  <path d="M128,224 Q122.5,96.0 109.0,224" fill="none" stroke="url(#warm)" stroke-width="1.4" stroke-linecap="round" opacity="0.85"/>
  <path d="M128,224 Q114.8,-87.8 85.6,224" fill="none" stroke="url(#cool)" stroke-width="1.0" stroke-linecap="round" opacity="0.9"/>
  <path d="M128,224 Q118.1,-98.1 92.1,224" fill="none" stroke="url(#cool)" stroke-width="1.0" stroke-linecap="round" opacity="0.9"/>
  <path d="M128,224 Q121.3,-107.1 98.7,224" fill="none" stroke="url(#cool)" stroke-width="1.0" stroke-linecap="round" opacity="0.9"/>
  <path d="M128,224 Q124.6,-114.7 105.2,224" fill="none" stroke="url(#cool)" stroke-width="1.0" stroke-linecap="round" opacity="0.9"/>
  <path d="M128,224 Q127.9,-120.9 111.8,224" fill="none" stroke="url(#cool)" stroke-width="1.0" stroke-linecap="round" opacity="0.9"/>
  <path d="M128,224 Q131.2,-125.8 118.3,224" fill="none" stroke="url(#cool)" stroke-width="1.0" stroke-linecap="round" opacity="0.9"/>
  <path d="M128,224 Q134.4,-129.2 124.9,224" fill="none" stroke="url(#cool)" stroke-width="1.0" stroke-linecap="round" opacity="0.9"/>
  <path d="M128,224 Q137.7,-131.3 131.4,224" fill="none" stroke="url(#cool)" stroke-width="1.0" stroke-linecap="round" opacity="0.9"/>
  <path d="M128,224 Q141.0,-132.0 138.0,224" fill="none" stroke="url(#cool)" stroke-width="1.0" stroke-linecap="round" opacity="0.9"/>
  <path d="M128,224 Q144.3,-131.3 144.6,224" fill="none" stroke="url(#cool)" stroke-width="1.0" stroke-linecap="round" opacity="0.9"/>
  <path d="M128,224 Q147.6,-129.2 151.1,224" fill="none" stroke="url(#cool)" stroke-width="1.0" stroke-linecap="round" opacity="0.9"/>
  <path d="M128,224 Q150.8,-125.8 157.7,224" fill="none" stroke="url(#cool)" stroke-width="1.0" stroke-linecap="round" opacity="0.9"/>
  <path d="M128,224 Q154.1,-120.9 164.2,224" fill="none" stroke="url(#cool)" stroke-width="1.0" stroke-linecap="round" opacity="0.9"/>
  <path d="M128,224 Q157.4,-114.7 170.8,224" fill="none" stroke="url(#cool)" stroke-width="1.0" stroke-linecap="round" opacity="0.9"/>
  <path d="M128,224 Q160.7,-107.1 177.3,224" fill="none" stroke="url(#cool)" stroke-width="1.0" stroke-linecap="round" opacity="0.9"/>
  <path d="M128,224 Q163.9,-98.1 183.9,224" fill="none" stroke="url(#cool)" stroke-width="1.0" stroke-linecap="round" opacity="0.9"/>
  <path d="M128,224 Q167.2,-87.8 190.4,224" fill="none" stroke="url(#cool)" stroke-width="1.0" stroke-linecap="round" opacity="0.9"/>
  <path d="M128,224 Q170.5,-76.0 197.0,224" fill="none" stroke="url(#cool)" stroke-width="1.0" stroke-linecap="round" opacity="0.9"/>
  <path d="M128,224 Q148.9,97.8 161.8,224" fill="none" stroke="url(#warm)" stroke-width="1.4" stroke-linecap="round" opacity="0.85"/>
  <path d="M128,224 Q177.1,-48.3 210.1,224" fill="none" stroke="url(#cool)" stroke-width="1.0" stroke-linecap="round" opacity="0.9"/>
  <path d="M128,224 Q180.3,-32.4 216.7,224" fill="none" stroke="url(#cool)" stroke-width="1.0" stroke-linecap="round" opacity="0.9"/>
  <path d="M128,224 Q183.6,-15.2 223.2,224" fill="none" stroke="url(#cool)" stroke-width="1.0" stroke-linecap="round" opacity="0.9"/>
  <path d="M128,224 Q186.9,3.5 229.8,224" fill="none" stroke="url(#cool)" stroke-width="1.0" stroke-linecap="round" opacity="0.9"/>
  <path d="M128,224 Q155.8,106.7 175.7,224" fill="none" stroke="url(#warm)" stroke-width="1.4" stroke-linecap="round" opacity="0.85"/>
  <path d="M128,224 Q193.4,45.0 242.9,224" fill="none" stroke="url(#cool)" stroke-width="1.0" stroke-linecap="round" opacity="0.9"/>
  <path d="M128,224 Q196.7,67.8 249.4,224" fill="none" stroke="url(#cool)" stroke-width="1.0" stroke-linecap="round" opacity="0.9"/>
  <path d="M128,224 Q200.0,92.0 256.0,224" fill="none" stroke="url(#cool)" stroke-width="1.0" stroke-linecap="round" opacity="0.9"/>
  <circle cx="128" cy="224" r="15" fill="url(#pad)"/><circle cx="128" cy="224" r="3.4" fill="#f8fafc"/>
</svg>