<svg viewBox="0 0 440 380" xmlns="http://www.w3.org/2000/svg" role="img" aria-labelledby="st sd">
  <title id="st">Kármán</title>
  <desc id="sd">A fountain of a million rocket trajectories fanning out across the Kármán line.</desc>
  <defs>
    <linearGradient id="cool" x1="0" y1="1" x2="0" y2="0">
      <stop offset="0" stop-color="#22d3ee"/><stop offset="0.55" stop-color="#3b82f6"/><stop offset="1" stop-color="#a78bfa"/>
    </linearGradient>
    <linearGradient id="warm" x1="0" y1="1" x2="0" y2="0">
      <stop offset="0" stop-color="#f59e0b"/><stop offset="1" stop-color="#ef4444"/>
    </linearGradient>
    <radialGradient id="pad" cx="0.5" cy="0.5" r="0.5">
      <stop offset="0" stop-color="#e2e8f0"/><stop offset="1" stop-color="#e2e8f0" stop-opacity="0"/>
    </radialGradient>
  </defs>
  <g>
    <line x1="40" y1="96" x2="400" y2="96" stroke="#64748b" stroke-width="1.3" stroke-dasharray="2 7" opacity="0.7"/>
    <text x="398" y="89" text-anchor="end" font-family="ui-monospace,monospace" font-size="10" fill="#64748b" letter-spacing="1.5">100 km · KÁRMÁN LINE</text>
    <path d="M220,250 Q160.6,94.0 82.0,250" fill="none" stroke="url(#cool)" stroke-width="1.6" stroke-linecap="round" opacity="0.9"/>
    <path d="M220,250 Q168.1,48.4 97.0,250" fill="none" stroke="url(#cool)" stroke-width="1.6" stroke-linecap="round" opacity="0.9"/>
    <path d="M220,250 Q175.6,7.6 112.0,250" fill="none" stroke="url(#cool)" stroke-width="1.6" stroke-linecap="round" opacity="0.9"/>
    <path d="M220,250 Q206.0,158.0 182.4,250" fill="none" stroke="url(#warm)" stroke-width="2.0" stroke-linecap="round" opacity="0.85"/>
    <path d="M220,250 Q190.6,-59.6 142.0,250" fill="none" stroke="url(#cool)" stroke-width="1.6" stroke-linecap="round" opacity="0.9"/>
    <path d="M220,250 Q212.4,150.0 195.2,250" fill="none" stroke="url(#warm)" stroke-width="2.0" stroke-linecap="round" opacity="0.85"/>
    <path d="M220,250 Q205.6,-107.6 172.0,250" fill="none" stroke="url(#cool)" stroke-width="1.6" stroke-linecap="round" opacity="0.9"/>
    <path d="M220,250 Q213.1,-124.4 187.0,250" fill="none" stroke="url(#cool)" stroke-width="1.6" stroke-linecap="round" opacity="0.9"/>
    <path d="M220,250 Q220.6,-136.4 202.0,250" fill="none" stroke="url(#cool)" stroke-width="1.6" stroke-linecap="round" opacity="0.9"/>
    <path d="M220,250 Q228.1,-143.6 217.0,250" fill="none" stroke="url(#cool)" stroke-width="1.6" stroke-linecap="round" opacity="0.9"/>
    <path d="M220,250 Q235.6,-146.0 232.0,250" fill="none" stroke="url(#cool)" stroke-width="1.6" stroke-linecap="round" opacity="0.9"/>
    <path d="M220,250 Q243.1,-143.6 247.0,250" fill="none" stroke="url(#cool)" stroke-width="1.6" stroke-linecap="round" opacity="0.9"/>
    <path d="M220,250 Q250.6,-136.4 262.0,250" fill="none" stroke="url(#cool)" stroke-width="1.6" stroke-linecap="round" opacity="0.9"/>
    <path d="M220,250 Q258.1,-124.4 277.0,250" fill="none" stroke="url(#cool)" stroke-width="1.6" stroke-linecap="round" opacity="0.9"/>
    <path d="M220,250 Q265.6,-107.6 292.0,250" fill="none" stroke="url(#cool)" stroke-width="1.6" stroke-linecap="round" opacity="0.9"/>
    <path d="M220,250 Q273.1,-86.0 307.0,250" fill="none" stroke="url(#cool)" stroke-width="1.6" stroke-linecap="round" opacity="0.9"/>
    <path d="M220,250 Q280.6,-59.6 322.0,250" fill="none" stroke="url(#cool)" stroke-width="1.6" stroke-linecap="round" opacity="0.9"/>
    <path d="M220,250 Q288.1,-28.4 337.0,250" fill="none" stroke="url(#cool)" stroke-width="1.6" stroke-linecap="round" opacity="0.9"/>
    <path d="M220,250 Q254.0,162.0 278.4,250" fill="none" stroke="url(#warm)" stroke-width="2.0" stroke-linecap="round" opacity="0.85"/>
    <path d="M220,250 Q303.1,48.4 367.0,250" fill="none" stroke="url(#cool)" stroke-width="1.6" stroke-linecap="round" opacity="0.9"/>
    <path d="M220,250 Q310.6,94.0 382.0,250" fill="none" stroke="url(#cool)" stroke-width="1.6" stroke-linecap="round" opacity="0.9"/>
    <circle cx="213.1" cy="62.8" r="1.9" fill="#a78bfa"/>
    <circle cx="220.6" cy="56.8" r="1.9" fill="#a78bfa"/>
    <circle cx="228.1" cy="53.2" r="1.9" fill="#a78bfa"/>
    <circle cx="235.6" cy="52.0" r="1.9" fill="#a78bfa"/>
    <circle cx="243.1" cy="53.2" r="1.9" fill="#a78bfa"/>
    <circle cx="250.6" cy="56.8" r="1.9" fill="#a78bfa"/>
    <circle cx="258.1" cy="62.8" r="1.9" fill="#a78bfa"/>
    <circle cx="220" cy="250" r="16" fill="url(#pad)"/><circle cx="220" cy="250" r="3.6" fill="#f8fafc"/>
  </g>
  <text x="220" y="322" text-anchor="middle" font-family="'Helvetica Neue',Arial,sans-serif" font-weight="800" font-size="66" letter-spacing="3" fill="currentColor">KÁRMÁN</text>
  <text x="220" y="350" text-anchor="middle" font-family="ui-monospace,monospace" font-size="13" letter-spacing="5" fill="#64748b">ONE MILLION LAUNCHES · GPU</text>
</svg>